<svg id="Layer_1" data-name="Layer 1" xmlns="http://www.w3.org/2000/svg" viewBox="0 0 445.55 367.99"><defs><style>.cls-1{fill:#083810;}</style></defs><path class="cls-1" d="M42.64,305.86c.35,1.22.77,2.42,1,3.66a35.07,35.07,0,0,1,.85,5.45c.08,1.88-.64,3.52-2.76,3.95s-3.36-.69-4-2.56c-2.66-7.52-5.39-15-7.91-22.59-1.22-3.69-2.1-7.5-3-11.29-.44-1.83-.73-3.8,1.73-4.6a4.21,4.21,0,0,1,5.54,2.38c1,2.3,1.7,4.71,2.55,7.06.44,1.2.93,2.37,1.66,4.21,1-1.46,1.63-2.37,2.17-3.36q26.88-48.92,53.71-97.87,32.24-59,64.26-118.12a9.47,9.47,0,0,0,1-4.23c.17-7.23.17-14.47.26-21.71,0-1,.19-2,.27-3.05.18-2.48,1-4.47,3.93-4.36,2.63.11,3.63,1.9,3.76,4.32.24,4.54.54,9.07.69,13.62.12,3.61.18,7.24,0,10.85-.1,2.17.7,3,2.75,3.65q48.52,14.57,97,29.28L289.45,107c.86.27,1.7.62,2.58.94-4.86,8.8-9.66,17.37-14.36,26q-35.52,65.13-71,130.29C190.28,294.3,174,324.4,157.45,354.4c-1.74,3.15-2.29,5.84-.6,9,.89,1.69,1.48,3.54,2.44,5.92,1.24-2.07,2.17-3.54,3-5.06q54.61-99.9,109.23-199.82c8.68-15.88,17.38-31.75,26.27-47.51,2.33-4.14,2.35-8.48,2.59-12.92.19-3.51.39-7,.82-10.52.25-2,1.15-3.81,3.68-3.76s3.64,1.81,3.83,4c.36,4.15.55,8.33.61,12.5a19.09,19.09,0,0,0,3,10.22Q345.69,170,378.92,223.55,418,286.32,457,349.09c.87,1.39,1.83,2.72,3.17,4.69.8-2,1.37-3.39,1.92-4.8,1.07-2.76,2-5.58,3.23-8.27.72-1.56,2-2.83,4-2a3.86,3.86,0,0,1,2.61,4.65c-.25,1.27-.51,2.55-.88,3.79-2.94,9.68-5.88,19.35-8.9,29-.37,1.19-1,2.83-1.94,3.18a7.22,7.22,0,0,1-4.93.13c-.86-.37-1.12-2.44-1.4-3.79-.15-.75.23-1.6.45-2.94-1.3.44-2.3.72-3.25,1.11C434,381,416.92,388.36,398.87,393c-9.64,2.46-19.38,4.26-29.44,3.56-13.46-.93-23.39-7.6-30.71-18.59a98.81,98.81,0,0,1-14.05-34.65c-4.72-22.42-8.7-45-13-67.5q-1.19-6.21-2.36-12.41h-1.05c-.27,1.64-.65,3.27-.8,4.92-1,11.46-1.91,22.94-3.06,34.39-2.1,20.78-4.22,41.59-10.53,61.63a111.57,111.57,0,0,1-8.27,19.7c-7.47,13.77-19.55,20.84-35.06,22.36-14.52,1.42-28.71-.88-42.84-3.67-12.46-2.46-24.86-5.26-37.26-8.07-2.38-.54-3.23,0-3.26,2.38s-.9,4.36-3.5,4.65-3.85-1.61-4.52-4c-.42-1.51-1.24-2.9-1.74-4.39-1.51-4.55-3-9.11-4.4-13.7-1-3.32-1.83-6.7-2.73-10.06l-.77,0c-1.69,3.13-3.37,6.26-5.35,10L43.38,305.35Z" transform="translate(-26.52 -38.83)"/></svg>